nColumns=19
nRows=111
DataType=double
version=3
OpenSimVersion=4.1
endheader
time	ground_force_1_vx	ground_force_1_vy	ground_force_1_vz	ground_force_1_px	ground_force_1_py	ground_force_1_pz	ground_force_1_mx	ground_force_1_my	ground_force_1_mz	ground_force_2_vx	ground_force_2_vy	ground_force_2_vz	ground_force_2_px	ground_force_2_py	ground_force_2_pz	ground_force_2_mx	ground_force_2_my	ground_force_2_mz
0	-112.702	639.811	-51.0269	0.166849	0.006	-0.156942	0	0.238915	0	0	0	0	0.635866	0	-0.323365	0	0	0
0.01	-112.571	646.484	-53.0082	0.16929	0.006	-0.156442	0	0.279573	0	0	0	0	0.635866	0	-0.323365	0	0	0
0.02	-112.081	653.217	-55.0576	0.172442	0.006	-0.155778	0	0.321025	0	0	0	0	0.635866	0	-0.323365	0	0	0
0.03	-111.125	659.564	-57.0637	0.17584	0.006	-0.155043	0	0.362044	0	0	0	0	0.635866	0	-0.323365	0	0	0
0.04	-109.602	664.979	-58.9052	0.179423	0.006	-0.154245	0	0.40082	0	0	0	0	0.635866	0	-0.323365	0	0	0
0.05	-107.441	668.875	-60.4746	0.183139	0.006	-0.153389	0	0.434411	0	0	0	0	0.635866	0	-0.323365	0	0	0
0.06	-104.606	670.702	-61.6896	0.186943	0.006	-0.152476	0	0.45923	0	0	0	0	0.635866	0	-0.323365	0	0	0
0.07	-101.1	670.018	-62.5034	0.190805	0.006	-0.151508	0	0.471831	0	0	0	0	0.635866	0	-0.323365	0	0	0
0.08	-96.9571	666.534	-62.9072	0.194702	0.006	-0.150478	0	0.469724	0	0	0	0	0.635866	0	-0.323365	0	0	0
0.09	-92.2391	660.143	-62.9206	0.198622	0.006	-0.149382	0	0.452039	0	0	0	0	0.635866	0	-0.323365	0	0	0
0.1	-87.0284	650.923	-62.5831	0.202559	0.006	-0.148214	0	0.419569	0	0	0	0	0.635866	0	-0.323365	0	0	0
0.11	-81.4228	639.121	-61.947	0.206509	0.006	-0.146972	0	0.37437	0	0	0	0	0.635866	0	-0.323365	0	0	0
0.12	-75.5297	625.135	-61.0717	0.210469	0.006	-0.145656	0	0.319231	0	0	0	0	0.635866	0	-0.323365	0	0	0
0.13	-69.4612	609.469	-60.0189	0.214432	0.006	-0.144268	0	0.257131	0	0	0	0	0.635866	0	-0.323365	0	0	0
0.14	-63.3287	592.69	-58.8536	0.21839	0.006	-0.142819	0	0.190774	0	0	0	0	0.635866	0	-0.323365	0	0	0
0.15	-57.2363	575.384	-57.6439	0.222332	0.006	-0.141321	0	0.122442	0	0	0	0	0.635866	0	-0.323365	0	0	0
0.16	-51.2769	558.111	-56.4601	0.226242	0.006	-0.139796	0	0.053963	0	0	0	0	0.635866	0	-0.323365	0	0	0
0.17	-45.5284	541.382	-55.3697	0.230106	0.006	-0.138267	0	-0.01325	0	0	0	0	0.635866	0	-0.323365	0	0	0
0.18	-40.0513	525.651	-54.4306	0.233911	0.006	-0.136766	0	-0.078313	0	0	0	0	0.635866	0	-0.323365	0	0	0
0.19	-34.8882	511.302	-53.6854	0.237644	0.006	-0.135331	0	-0.141053	0	0	0	0	0.635866	0	-0.323365	0	0	0
0.2	-30.0653	498.653	-53.1585	0.241297	0.006	-0.134007	0	-0.20219	0	0	0	0	0.635866	0	-0.323365	0	0	0
0.21	-25.5938	487.95	-52.8543	0.244866	0.006	-0.132841	0	-0.263426	0	0	0	0	0.635866	0	-0.323365	0	0	0
0.22	-21.4706	479.38	-52.7579	0.248357	0.006	-0.131885	0	-0.327563	0	0	0	0	0.635866	0	-0.323365	0	0	0
0.23	-17.6781	473.079	-52.8363	0.251776	0.006	-0.131184	0	-0.398432	0	0	0	0	0.635866	0	-0.323365	0	0	0
0.24	-14.1821	469.142	-53.0422	0.255133	0.006	-0.130779	0	-0.480455	0	0	0	0	0.635866	0	-0.323365	0	0	0
0.25	-10.9315	467.634	-53.3194	0.258436	0.006	-0.130701	0	-0.578074	0	0	0	0	0.635866	0	-0.323365	0	0	0
0.26	-7.86054	468.59	-53.6092	0.261687	0.006	-0.130963	0	-0.695236	0	0	0	0	0.635866	0	-0.323365	0	0	0
0.27	-4.89177	472.011	-53.8573	0.264885	0.006	-0.131564	0	-0.834797	0	0	0	0	0.635866	0	-0.323365	0	0	0
0.28	-1.94035	477.86	-54.0186	0.268019	0.006	-0.132482	0	-0.997918	0	0	0	0	0.635866	0	-0.323365	0	0	0
0.29	1.08135	486.059	-54.059	0.271078	0.006	-0.133679	0	-1.1838	0	0	0	0	0.635866	0	-0.323365	0	0	0
0.3	4.26053	496.472	-53.9562	0.274045	0.006	-0.135102	0	-1.38949	0	0	0	0	0.635866	0	-0.323365	0	0	0
0.31	7.68133	508.896	-53.6996	0.276904	0.006	-0.13669	0	-1.60989	0	0	0	0	0.635866	0	-0.323365	0	0	0
0.32	11.4204	523.049	-53.288	0.279642	0.006	-0.138375	0	-1.83792	0	0	0	0	0.635866	0	-0.323365	0	0	0
0.33	15.5419	538.56	-52.7273	0.282249	0.006	-0.140094	0	-2.06479	0	0	0	0	0.635866	0	-0.323365	0	0	0
0.34	20.0935	554.967	-52.0285	0.284721	0.006	-0.141788	0	-2.28017	0	0	0	0	0.635866	0	-0.323365	0	0	0
0.35	25.1016	571.715	-51.2059	0.287059	0.006	-0.143411	0	-2.47278	0	0	0	0	0.635866	0	-0.323365	0	0	0
0.36	30.5681	588.16	-50.2754	0.28927	0.006	-0.144926	0	-2.63106	0	0	0	0	0.635866	0	-0.323365	0	0	0
0.37	36.4668	603.579	-49.2514	0.291366	0.006	-0.146311	0	-2.74421	0	0	0	0	0.635866	0	-0.323365	0	0	0
0.38	42.7385	617.188	-48.1421	0.293362	0.006	-0.147555	0	-2.8034	0	0	0	0	0.635866	0	-0.323365	0	0	0
0.39	49.2891	628.175	-46.9435	0.295275	0.006	-0.148657	0	-2.80303	0	0	0	0	0.635866	0	-0.323365	0	0	0
0.4	55.9904	635.729	-45.6357	0.297121	0.006	-0.149624	0	-2.74183	0	0	0	0	0.635866	0	-0.323365	0	0	0
0.41	62.6827	639.082	-44.1836	0.298919	0.006	-0.150469	0	-2.62312	0	0	0	0	0.635866	0	-0.323365	0	0	0
0.42	69.177	637.541	-42.5422	0.300684	0.006	-0.151207	0	-2.45455	0	0	0	0	0.635866	0	-0.323365	0	0	0
0.43	75.2582	630.522	-40.6638	0.302431	0.006	-0.151856	0	-2.24724	0	0	0	0	0.635866	0	-0.323365	0	0	0
0.44	80.6895	617.585	-38.5076	0.304174	0.006	-0.15243	0	-2.01449	0	6.83045	25.8591	-4.11523	0.653255	0.006	-0.326671	0	0.141248	0
0.45	85.2208	598.463	-36.0494	0.305925	0.006	-0.152942	0	-1.77016	0	5.80468	45.0439	-3.93598	0.705924	0.006	-0.336211	0	0.263145	0
0.46	88.5982	573.096	-33.2904	0.307695	0.006	-0.153403	0	-1.52723	0	3.77182	68.8744	-3.53312	0.733184	0.006	-0.340595	0	0.326422	0
0.47	90.5802	541.661	-30.2622	0.309498	0.006	-0.15382	0	-1.29645	0	0.458106	97.542	-2.84115	0.75051	0.006	-0.342978	0	0.373735	0
0.48	90.956	504.594	-27.0278	0.311345	0.006	-0.154197	0	-1.08543	0	-4.36821	131.054	-1.78952	0.763041	0.006	-0.344404	0	0.421365	0
0.49	89.5674	462.613	-23.6763	0.31325	0.006	-0.154536	0	-0.898248	0	-10.7562	169.355	-0.306128	0.772949	0.006	-0.345322	0	0.47885	0
0.5	86.3375	416.716	-20.3145	0.315233	0.006	-0.154837	0	-0.735526	0	-18.5918	212.343	1.6863	0.781263	0.006	-0.345952	0	0.553169	0
0.51	81.302	368.162	-17.0538	0.317321	0.006	-0.155099	0	-0.595322	0	-27.6778	259.754	4.26459	0.788512	0.006	-0.346414	0	0.649924	0
0.52	74.6374	318.406	-13.9973	0.319546	0.006	-0.15532	0	-0.474252	0	-37.7563	311.039	7.48996	0.794989	0.006	-0.346774	0	0.773355	0
0.53	66.6692	268.983	-11.227	0.321955	0.006	-0.155494	0	-0.368434	0	-48.5051	365.283	11.3931	0.800869	0.006	-0.347076	0	0.925347	0
0.54	57.8484	221.38	-8.79102	0.324622	0.006	-0.155613	0	-0.274663	0	-59.5373	421.186	15.9534	0.806265	0.006	-0.347347	0	1.10494	0
0.55	48.6845	176.904	-6.69939	0.327664	0.006	-0.155663	0	-0.19088	0	-70.4195	477.191	21.0949	0.811256	0.006	-0.347603	0	1.30943	0
0.56	39.6678	136.583	-4.93308	0.331296	0.006	-0.155621	0	-0.116083	0	-80.7356	531.779	26.7079	0.815911	0.006	-0.34786	0	1.53508	0
0.57	31.203	101.105	-3.46018	0.335926	0.006	-0.155437	0	-0.049845	0	-90.1216	583.675	32.6467	0.820283	0.006	-0.348122	0	1.77703	0
0.58	23.5748	70.8158	-2.25078	0.342397	0.006	-0.155002	0	0.008083	0	-98.2647	631.859	38.7145	0.824412	0.006	-0.348387	0	2.02893	0
0.59	16.9416	45.7456	-1.28313	0.352746	0.006	-0.154039	0	0.05807	0	-104.924	675.516	44.6684	0.82833	0.006	-0.34865	0	2.2829	0
0.6	11.3566	25.6567	-0.536159	0.373363	0.006	-0.15166	0	0.101424	0	-109.934	713.987	50.2543	0.832065	0.006	-0.348903	0	2.53052	0
0.61	0	0	0	0.402978	0	-0.149503	0	0	0	-113.21	746.75	55.2428	0.835643	0.006	-0.349139	0	2.76345	0
0.62	0	0	0	0.43044	0	-0.148139	0	0	0	-114.736	773.408	59.444	0.839087	0.006	-0.349355	0	2.9735	0
0.63	0	0	0	0.457901	0	-0.146774	0	0	0	-114.551	793.673	62.7209	0.842416	0.006	-0.349549	0	3.15358	0
0.64	0	0	0	0.485363	0	-0.14541	0	0	0	-112.75	807.354	64.9964	0.845649	0.006	-0.349721	0	3.29868	0
0.65	0	0	0	0.512825	0	-0.144046	0	0	0	-109.475	814.348	66.2557	0.848806	0.006	-0.349876	0	3.40639	0
0.66	0	0	0	0.540286	0	-0.142681	0	0	0	-104.907	814.66	66.5438	0.851913	0.006	-0.350022	0	3.47694	0
0.67	0	0	0	0.567748	0	-0.141317	0	0	0	-99.2568	808.433	65.9544	0.854995	0.006	-0.350169	0	3.51316	0
0.68	0	0	0	0.59521	0	-0.139953	0	0	0	-92.7502	795.975	64.6143	0.858086	0.006	-0.35033	0	3.5202	0
0.69	0	0	0	0.622671	0	-0.138588	0	0	0	-85.6125	777.778	62.6675	0.861215	0.006	-0.350516	0	3.50458	0
0.7	0	0	0	0.650133	0	-0.137224	0	0	0	-78.0616	754.521	60.2622	0.864413	0.006	-0.350741	0	3.47313	0
0.71	0	0	0	0.677595	0	-0.13586	0	0	0	-70.3017	727.051	57.541	0.86771	0.006	-0.351011	0	3.43213	0
0.72	0	0	0	0.705056	0	-0.134495	0	0	0	-62.5191	696.359	54.6341	0.871132	0.006	-0.351335	0	3.38685	0
0.73	0	0	0	0.732518	0	-0.133131	0	0	0	-54.8775	663.53	51.6561	0.874703	0.006	-0.351717	0	3.34126	0
0.74	0	0	0	0.75998	0	-0.131767	0	0	0	-47.5136	629.697	48.7049	0.878441	0.006	-0.35216	0	3.298	0
0.75	0	0	0	0.787441	0	-0.130402	0	0	0	-40.5343	595.991	45.8619	0.882353	0.006	-0.352663	0	3.25868	0
0.76	0	0	0	0.814903	0	-0.129038	0	0	0	-34.0146	563.486	43.1939	0.886433	0.006	-0.353223	0	3.22433	0
0.77	0	0	0	0.842365	0	-0.127674	0	0	0	-27.9972	533.156	40.7572	0.890659	0.006	-0.35383	0	3.19557	0
0.78	0	0	0	0.869826	0	-0.126309	0	0	0	-22.4936	505.839	38.6007	0.894985	0.006	-0.354473	0	3.17277	0
0.79	0	0	0	0.897288	0	-0.124945	0	0	0	-17.4875	482.21	36.7687	0.899346	0.006	-0.355137	0	3.1558	0
0.8	0	0	0	0.92475	0	-0.123581	0	0	0	-12.9386	462.761	35.3017	0.90366	0.006	-0.355804	0	3.14389	0
0.81	0	0	0	0.952211	0	-0.122216	0	0	0	-8.78447	447.803	34.2357	0.907834	0.006	-0.356456	0	3.13578	0
0.82	0	0	0	0.979673	0	-0.120852	0	0	0	-4.94025	437.484	33.5993	0.911772	0.006	-0.357076	0	3.12985	0
0.83	0	0	0	1.00713	0	-0.119488	0	0	0	-1.30313	431.811	33.4144	0.915393	0.006	-0.35765	0	3.12421	0
0.84	0	0	0	1.0346	0	-0.118123	0	0	0	2.2416	430.672	33.6961	0.918637	0.006	-0.358166	0	3.11674	0
0.85	0	0	0	1.06206	0	-0.116759	0	0	0	5.81243	433.857	34.4535	0.921478	0.006	-0.358621	0	3.10527	0
0.86	0	0	0	1.08952	0	-0.115395	0	0	0	9.5236	441.07	35.6885	0.92392	0.006	-0.359014	0	3.08771	0
0.87	0	0	0	1.11698	0	-0.11403	0	0	0	13.4779	451.934	37.3947	0.926001	0.006	-0.359351	0	3.0622	0
0.88	0	0	0	1.14444	0	-0.112666	0	0	0	17.7609	466	39.5541	0.927776	0.006	-0.359637	0	3.02709	0
0.89	0	0	0	1.1719	0	-0.111302	0	0	0	22.437	482.744	42.1328	0.929312	0.006	-0.359879	0	2.98118	0
0.9	0	0	0	1.19937	0	-0.109937	0	0	0	27.5467	501.566	45.0772	0.93068	0.006	-0.36008	0	2.92398	0
0.91	0	0	0	1.22683	0	-0.108573	0	0	0	33.1021	521.797	48.3108	0.931945	0.006	-0.360243	0	2.85563	0
0.92	0	0	0	1.25429	0	-0.107209	0	0	0	39.0858	542.694	51.734	0.933164	0.006	-0.36037	0	2.7772	0
0.93	0	0	0	1.28175	0	-0.105844	0	0	0	45.4515	563.45	55.2244	0.934382	0.006	-0.36046	0	2.69077	0
0.94	0	0	0	1.30921	0	-0.10448	0	0	0	52.1233	583.206	58.6426	0.935632	0.006	-0.360509	0	2.59936	0
0.95	0	0	0	1.33667	0	-0.103115	0	0	0	58.9988	601.079	61.8403	0.936941	0.006	-0.360515	0	2.50636	0
0.96	0	0	0	1.36414	0	-0.101751	0	0	0	65.9524	616.185	64.6692	0.938321	0.006	-0.360476	0	2.41498	0
0.97	6.45826	21.0946	3.36374	1.3916	0.006	-0.100387	0	0.287809	0	72.8386	627.671	66.9873	0.939783	0.006	-0.36039	0	2.32799	0
0.98	6.33034	35.0862	3.25532	1.40695	0.006	-0.100114	0	0.262244	0	79.4939	634.745	68.6644	0.941331	0.006	-0.360254	0	2.24788	0
0.99	5.65096	52.3679	2.89997	1.41678	0.006	-0.0994256	0	0.254547	0	85.7377	636.72	69.5873	0.942964	0.006	-0.360068	0	2.17686	0
1	4.23614	73.0403	2.21923	1.42424	0.006	-0.0985766	0	0.252373	0	91.3749	633.042	69.666	0.944682	0.006	-0.359829	0	2.1167	0
1.01	1.8826	97.0048	1.12781	1.43053	0.006	-0.0976436	0	0.250143	0	96.2011	623.323	68.84	0.946482	0.006	-0.359536	0	2.06828	0
1.02	-1.56563	124.021	-0.444639	1.43624	0.006	-0.0966586	0	0.244932	0	100.012	607.366	67.0841	0.948362	0.006	-0.359187	0	2.03136	0
1.03	-6.11551	153.88	-2.5352	1.44164	0.006	-0.0956526	0	0.236198	0	102.612	585.189	64.4107	0.950318	0.006	-0.358781	0	2.0046	0
1.04	-11.6585	186.449	-5.15249	1.44687	0.006	-0.0946536	0	0.225139	0	103.83	557.035	60.871	0.952347	0.006	-0.358318	0	1.98573	0
1.05	-18.043	221.574	-8.28493	1.45197	0.006	-0.0936826	0	0.213602	0	103.526	523.376	56.5559	0.954444	0.006	-0.357796	0	1.97164	0
1.06	-25.0904	258.982	-11.9049	1.45695	0.006	-0.0927546	0	0.203367	0	101.61	484.896	51.5934	0.956603	0.006	-0.357213	0	1.95883	0
1.07	-32.6015	298.223	-15.9675	1.4618	0.006	-0.0918746	0	0.196013	0	98.0583	442.465	46.1429	0.95882	0.006	-0.356569	0	1.94412	0
1.08	-40.3424	338.656	-20.4009	1.46649	0.006	-0.0910456	0	0.193001	0	92.9159	397.122	40.3863	0.961092	0.006	-0.35586	0	1.92534	0
1.09	-48.023	379.473	-25.0959	1.47099	0.006	-0.0902676	0	0.195824	0	86.3041	350.03	34.5193	0.963417	0.006	-0.355076	0	1.90123	0
1.1	-55.3224	419.783	-29.9196	1.47527	0.006	-0.0895386	0	0.205677	0	78.4313	302.43	28.7385	0.965802	0.006	-0.354204	0	1.87154	0
